<svg width="342" height="374" viewBox="0 0 342 374" fill="none" xmlns="http://www.w3.org/2000/svg">
<path d="M67.3903 294.309C-99.0097 135.909 85.2831 34.5384 165.283 4.53838C245.283 -25.4616 312.042 141.809 341.39 260.309C344.057 337.642 233.79 452.709 67.3903 294.309Z" fill="#7FC8F8"/>
<mask id="mask0_2027_171" style="mask-type:alpha" maskUnits="userSpaceOnUse" x="0" y="0" width="342" height="373">
<path d="M67.3903 293.309C-99.0097 134.909 85.2831 33.5384 165.283 3.53838C245.283 -26.4616 312.042 140.809 341.39 259.309C344.057 336.642 233.79 451.709 67.3903 293.309Z" fill="#7FC8F8"/>
</mask>
<g mask="url(#mask0_2027_171)">
<path d="M285.5 244C314.019 137.564 157.716 -1.02673 76 3.00339L584 -99L540 583L0 345C83.2836 355.682 256.981 350.436 285.5 244Z" fill="#0B1445" fill-opacity="0.2"/>
</g>
<circle cx="206" cy="242" r="10" fill="#0C1618"/>
</svg>
