<svg width="125" height="124" viewBox="0 0 125 124" fill="none" xmlns="http://www.w3.org/2000/svg">
<path d="M87.72 54.1907C49.7865 68.1255 62.4161 19.3538 42.2386 0C29.6587 0 9.53064 9.48338 2.56326 31.9338C-6.14596 59.9969 7.40172 70.6415 42.2386 111.285C70.1081 143.799 108.042 106.123 123.525 83.2215C127.395 67.7384 125.654 40.256 87.72 54.1907Z" fill="#A894FF"/>
<mask id="mask0_2064_213" style="mask-type:alpha" maskUnits="userSpaceOnUse" x="0" y="0" width="125" height="124">
<path d="M87.72 54.1907C49.7865 68.1255 62.4161 19.3538 42.2386 0C29.6587 0 9.53064 9.48338 2.56326 31.9338C-6.14596 59.9969 7.40172 70.6415 42.2386 111.285C70.1081 143.799 108.042 106.123 123.525 83.2215C127.395 67.7384 125.654 40.256 87.72 54.1907Z" fill="#A894FF"/>
</mask>
<g mask="url(#mask0_2064_213)">
<path d="M95.6409 74.0281C104.006 59.0071 95.3184 49.0294 85.964 42.0942L179.83 44.9973L256.277 123.864L11.9356 162.088C-12.9018 125.638 -46.4184 30.348 1.77416 67.7381C57.9014 111.284 73.5451 113.703 95.6409 74.0281Z" fill="black" fill-opacity="0.2"/>
</g>
<circle cx="39.5728" cy="68.2313" r="10" transform="rotate(16.7854 39.5728 68.2313)" fill="#0C1618"/>
</svg>
